<svg xmlns="http://www.w3.org/2000/svg" xmlns:xlink="http://www.w3.org/1999/xlink" width="375" zoomAndPan="magnify" viewBox="0 0 281.25 281.249989" height="375" preserveAspectRatio="xMidYMid meet" version="1.0"><defs><filter x="0%" y="0%" width="100%" height="100%" id="2fb38c0f87"><feColorMatrix values="0 0 0 0 1 0 0 0 0 1 0 0 0 0 1 0 0 0 1 0" color-interpolation-filters="sRGB"></feColorMatrix></filter><filter x="0%" y="0%" width="100%" height="100%" id="a0b2966c7a"><feColorMatrix values="0 0 0 0 1 0 0 0 0 1 0 0 0 0 1 0.2126 0.7152 0.0722 0 0" color-interpolation-filters="sRGB"></feColorMatrix></filter><clipPath id="6b497a6f82"><path d="M 0 0 L 280.503906 0 L 280.503906 280.503906 L 0 280.503906 Z M 0 0 " clip-rule="nonzero"></path></clipPath><mask id="8dd714a14e"><g filter="url(#2fb38c0f87)"><g filter="url(#a0b2966c7a)" transform="matrix(0.284885, 0, 0, 0.284885, -6.866656, -6.86666)"><image x="0" y="0" width="1024" height="1024" preserveAspectRatio="xMidYMid meet"></image></g></g></mask></defs><g clip-path="url(#6b497a6f82)"><path fill="#ffffff" d="M 0 0 L 280.503906 0 L 280.503906 280.503906 L 0 280.503906 Z M 0 0 " fill-opacity="1" fill-rule="nonzero"></path><path fill="#ffffff" d="M 0 0 L 280.503906 0 L 280.503906 280.503906 L 0 280.503906 Z M 0 0 " fill-opacity="1" fill-rule="nonzero"></path><g mask="url(#8dd714a14e)"><g transform="matrix(0.284885, 0, 0, 0.284885, -6.866656, -6.86666)"><image x="0" y="0" width="1024" height="1024" preserveAspectRatio="xMidYMid meet"></image></g></g></g></svg>