<?xml version="1.0"?>

<svg xmlns="http://www.w3.org/2000/svg" xmlns:xlink="http://www.w3.org/1999/xlink" width="375" zoomAndPan="magnify" viewBox="0 0 375 374.999991" height="375" preserveAspectRatio="xMidYMid meet" version="1.0"><defs><filter x="0%" y="0%" width="100%" height="100%" id="f835ab48ac"><feColorMatrix values="0 0 0 0 1 0 0 0 0 1 0 0 0 0 1 0 0 0 1 0" color-interpolation-filters="sRGB"></feColorMatrix></filter><filter x="0%" y="0%" width="100%" height="100%" id="abf819f08e"><feColorMatrix values="0 0 0 0 1 0 0 0 0 1 0 0 0 0 1 0.2126 0.7152 0.0722 0 0" color-interpolation-filters="sRGB"></feColorMatrix></filter><g></g><clipPath id="0a4d2d18b0"><path d="M 0 0 L 343.121094 0 L 343.121094 375 L 0 375 Z M 0 0 " clip-rule="nonzero"></path></clipPath><clipPath id="2c1c6091ef"><path d="M 118.582031 49.351562 L 277.402344 49.351562 L 277.402344 146.46875 L 118.582031 146.46875 Z M 118.582031 49.351562 " clip-rule="nonzero"></path></clipPath><clipPath id="3f4efd4040"><path d="M 136.25 106.050781 L 228.789062 106.050781 L 228.789062 186.761719 L 136.25 186.761719 Z M 136.25 106.050781 " clip-rule="nonzero"></path></clipPath><image x="0" y="0" width="367" id="92a1de1fc1" height="626" preserveAspectRatio="xMidYMid meet"></image><mask id="63f02411c6"><g filter="url(#f835ab48ac)"><g filter="url(#abf819f08e)" transform="matrix(0.257914, 0, 0, 0.257859, 134.234938, 106.051207)"><image x="0" y="0" width="367" height="626" preserveAspectRatio="xMidYMid meet"></image></g></g></mask><image x="0" y="0" width="367" id="68bded8a3f" height="626" preserveAspectRatio="xMidYMid meet"></image><clipPath id="8e0cd0b17a"><path d="M 155 95.125 L 211.613281 95.125 L 211.613281 130.199219 L 155 130.199219 Z M 155 95.125 " clip-rule="nonzero"></path></clipPath></defs><rect x="-37.5" width="450" fill="#ffffff" y="-37.499999" height="449.999989" fill-opacity="1"></rect><rect x="-37.5" width="450" fill="#ffffff" y="-37.499999" height="449.999989" fill-opacity="1"></rect><g clip-path="url(#0a4d2d18b0)"><path fill="#ffffff" d="M 0 -48.625 L 343.121094 -48.625 L 343.121094 561.132812 L 0 561.132812 Z M 0 -48.625 " fill-opacity="1" fill-rule="nonzero"></path><path fill="#ffffff" d="M 0 -48.625 L 343.121094 -48.625 L 343.121094 561.132812 L 0 561.132812 Z M 0 -48.625 " fill-opacity="1" fill-rule="nonzero"></path></g><path fill="#0068a6" d="M 263.167969 193.074219 C 252.113281 211.402344 234.832031 223.671875 215.664062 228.816406 C 230.910156 222.554688 244.351562 211.527344 253.515625 196.339844 C 276.207031 158.71875 264.089844 109.824219 226.457031 87.140625 C 207.164062 75.511719 184.898438 73.035156 164.726562 78.449219 C 187.230469 69.207031 213.679688 70.359375 236.109375 83.882812 C 273.742188 106.5625 285.859375 155.460938 263.167969 193.078125 " fill-opacity="1" fill-rule="evenodd"></path><path fill="#0068a6" d="M 100.820312 97.777344 C 111.875 79.453125 129.15625 67.179688 148.324219 62.035156 C 133.078125 68.296875 119.636719 79.324219 110.472656 94.515625 C 87.78125 132.132812 99.898438 181.03125 137.53125 203.710938 C 156.824219 215.34375 179.089844 217.820312 199.261719 212.40625 C 176.753906 221.648438 150.308594 220.496094 127.875 206.972656 C 90.246094 184.292969 78.128906 135.394531 100.820312 97.777344 " fill-opacity="1" fill-rule="evenodd"></path><path fill="#7bab0a" d="M 233.949219 203.140625 C 245.003906 184.816406 247.792969 163.808594 243.398438 144.464844 C 244.976562 160.863281 241.492188 177.898438 232.328125 193.089844 C 209.636719 230.703125 160.71875 242.816406 123.089844 220.132812 C 103.792969 208.503906 91.210938 189.976562 86.582031 169.617188 C 88.914062 193.828125 102.273438 216.667969 124.710938 230.191406 C 162.34375 252.871094 211.257812 240.757812 233.949219 203.140625 " fill-opacity="1" fill-rule="evenodd"></path><g clip-path="url(#2c1c6091ef)"><path fill="#7bab0a" d="M 130.035156 87.710938 C 118.984375 106.035156 116.191406 127.042969 120.589844 146.390625 C 119.011719 129.988281 122.496094 112.960938 131.65625 97.769531 C 154.347656 60.152344 203.265625 48.039062 240.894531 70.722656 C 260.191406 82.351562 272.777344 100.875 277.402344 121.238281 C 275.074219 97.027344 261.710938 74.1875 239.277344 60.664062 C 201.644531 37.984375 152.726562 50.09375 130.035156 87.710938 " fill-opacity="1" fill-rule="evenodd"></path></g><g clip-path="url(#3f4efd4040)"><g mask="url(#63f02411c6)"><g transform="matrix(0.257914, 0, 0, 0.257859, 134.234938, 106.051207)"><image x="0" y="0" width="367" height="626" preserveAspectRatio="xMidYMid meet"></image></g></g></g><g clip-path="url(#8e0cd0b17a)"><path fill="#0068a6" d="M 197.691406 100.25 L 183.933594 95.1875 L 183.773438 95.128906 L 183.613281 95.1875 L 169.851562 100.25 L 155.777344 105.425781 L 158.730469 106.515625 L 162.140625 107.769531 C 161.402344 109.1875 160.714844 111.859375 161.644531 116.542969 C 160.933594 116.828125 160.429688 117.523438 160.429688 118.335938 C 160.429688 118.914062 160.6875 119.433594 161.09375 119.789062 C 160.671875 124.851562 157.25 125.558594 156.128906 125.652344 C 155.777344 125.679688 155.460938 125.914062 155.375 126.257812 C 155.011719 127.722656 158.992188 129.207031 161.351562 129.949219 C 162.394531 130.273438 163.53125 129.792969 164 128.804688 C 165.835938 124.953125 164.570312 121.269531 163.792969 119.621094 C 164.101562 119.28125 164.289062 118.832031 164.289062 118.335938 C 164.289062 117.480469 163.730469 116.757812 162.960938 116.503906 C 162.730469 114.640625 162.414062 110.523438 163.75 108.363281 L 167.535156 109.753906 C 168.167969 107.582031 171.910156 106.808594 173.214844 106.539062 C 176.082031 105.945312 179.914062 105.621094 184.015625 105.621094 C 188.097656 105.621094 191.910156 105.945312 194.753906 106.53125 C 196.027344 106.796875 199.640625 107.542969 200.363281 109.625 L 208.816406 106.515625 L 211.769531 105.429688 Z M 197.691406 100.25 " fill-opacity="1" fill-rule="nonzero"></path></g><path fill="#0068a6" d="M 168.664062 110.40625 L 168.664062 119.332031 C 173.050781 116.429688 178.3125 114.742188 183.96875 114.742188 C 189.625 114.742188 194.882812 116.429688 199.273438 119.332031 L 199.273438 110.386719 C 199.273438 105.640625 168.660156 105.660156 168.664062 110.40625 Z M 168.664062 110.40625 " fill-opacity="1" fill-rule="nonzero"></path><g fill="#0068a6" fill-opacity="1"><g transform="translate(106.158501, 263.652627)"><g><path d="M 15.140625 0 L 15.125 -8.828125 L 10.78125 -1.5625 L 9.25 -1.5625 L 4.9375 -8.640625 L 4.9375 0 L 1.75 0 L 1.75 -14.71875 L 4.5625 -14.71875 L 10.078125 -5.578125 L 15.5 -14.71875 L 18.296875 -14.71875 L 18.34375 0 Z M 15.140625 0 "></path></g></g></g><g fill="#0068a6" fill-opacity="1"><g transform="translate(126.24277, 263.652627)"><g><path d="M 13.140625 -2.734375 L 13.140625 0 L 1.75 0 L 1.75 -14.71875 L 12.875 -14.71875 L 12.875 -11.984375 L 5.125 -11.984375 L 5.125 -8.796875 L 11.96875 -8.796875 L 11.96875 -6.140625 L 5.125 -6.140625 L 5.125 -2.734375 Z M 13.140625 -2.734375 "></path></g></g></g><g fill="#0068a6" fill-opacity="1"><g transform="translate(140.354333, 263.652627)"><g><path d="M 1.75 -14.71875 L 8.4375 -14.71875 C 10.03125 -14.71875 11.441406 -14.410156 12.671875 -13.796875 C 13.898438 -13.191406 14.851562 -12.332031 15.53125 -11.21875 C 16.207031 -10.113281 16.546875 -8.828125 16.546875 -7.359375 C 16.546875 -5.890625 16.207031 -4.597656 15.53125 -3.484375 C 14.851562 -2.378906 13.898438 -1.519531 12.671875 -0.90625 C 11.441406 -0.300781 10.03125 0 8.4375 0 L 1.75 0 Z M 8.265625 -2.796875 C 9.734375 -2.796875 10.90625 -3.203125 11.78125 -4.015625 C 12.664062 -4.835938 13.109375 -5.953125 13.109375 -7.359375 C 13.109375 -8.765625 12.664062 -9.875 11.78125 -10.6875 C 10.90625 -11.507812 9.734375 -11.921875 8.265625 -11.921875 L 5.15625 -11.921875 L 5.15625 -2.796875 Z M 8.265625 -2.796875 "></path></g></g></g><g fill="#0068a6" fill-opacity="1"><g transform="translate(157.725649, 263.652627)"><g><path d="M 13.140625 -2.734375 L 13.140625 0 L 1.75 0 L 1.75 -14.71875 L 12.875 -14.71875 L 12.875 -11.984375 L 5.125 -11.984375 L 5.125 -8.796875 L 11.96875 -8.796875 L 11.96875 -6.140625 L 5.125 -6.140625 L 5.125 -2.734375 Z M 13.140625 -2.734375 "></path></g></g></g><g fill="#0068a6" fill-opacity="1"><g transform="translate(171.837212, 263.652627)"><g><path d="M 8.796875 0.25 C 7.296875 0.25 5.9375 -0.0703125 4.71875 -0.71875 C 3.507812 -1.375 2.554688 -2.28125 1.859375 -3.4375 C 1.160156 -4.59375 0.8125 -5.898438 0.8125 -7.359375 C 0.8125 -8.816406 1.160156 -10.125 1.859375 -11.28125 C 2.554688 -12.4375 3.507812 -13.335938 4.71875 -13.984375 C 5.9375 -14.640625 7.300781 -14.96875 8.8125 -14.96875 C 10.082031 -14.96875 11.234375 -14.742188 12.265625 -14.296875 C 13.296875 -13.847656 14.164062 -13.203125 14.875 -12.359375 L 12.6875 -10.34375 C 11.6875 -11.5 10.453125 -12.078125 8.984375 -12.078125 C 8.066406 -12.078125 7.25 -11.875 6.53125 -11.46875 C 5.820312 -11.070312 5.265625 -10.515625 4.859375 -9.796875 C 4.460938 -9.085938 4.265625 -8.273438 4.265625 -7.359375 C 4.265625 -6.453125 4.460938 -5.640625 4.859375 -4.921875 C 5.265625 -4.203125 5.820312 -3.644531 6.53125 -3.25 C 7.25 -2.851562 8.066406 -2.65625 8.984375 -2.65625 C 10.453125 -2.65625 11.6875 -3.234375 12.6875 -4.390625 L 14.875 -2.375 C 14.164062 -1.519531 13.289062 -0.867188 12.25 -0.421875 C 11.21875 0.0234375 10.066406 0.25 8.796875 0.25 Z M 8.796875 0.25 "></path></g></g></g><g fill="#0068a6" fill-opacity="1"><g transform="translate(187.252678, 263.652627)"><g><path d="M 1.75 -14.71875 L 5.15625 -14.71875 L 5.15625 0 L 1.75 0 Z M 1.75 -14.71875 "></path></g></g></g><g fill="#0068a6" fill-opacity="1"><g transform="translate(194.150731, 263.652627)"><g><path d="M 15.25 -14.71875 L 15.25 0 L 12.453125 0 L 5.109375 -8.9375 L 5.109375 0 L 1.75 0 L 1.75 -14.71875 L 4.5625 -14.71875 L 11.875 -5.78125 L 11.875 -14.71875 Z M 15.25 -14.71875 "></path></g></g></g><g fill="#0068a6" fill-opacity="1"><g transform="translate(211.1435, 263.652627)"><g><path d="M 13.140625 -2.734375 L 13.140625 0 L 1.75 0 L 1.75 -14.71875 L 12.875 -14.71875 L 12.875 -11.984375 L 5.125 -11.984375 L 5.125 -8.796875 L 11.96875 -8.796875 L 11.96875 -6.140625 L 5.125 -6.140625 L 5.125 -2.734375 Z M 13.140625 -2.734375 "></path></g></g></g><g fill="#0068a6" fill-opacity="1"><g transform="translate(225.255063, 263.652627)"><g></g></g></g><g fill="#0068a6" fill-opacity="1"><g transform="translate(231.206739, 263.652627)"><g><path d="M 13.140625 -2.734375 L 13.140625 0 L 1.75 0 L 1.75 -14.71875 L 12.875 -14.71875 L 12.875 -11.984375 L 5.125 -11.984375 L 5.125 -8.796875 L 11.96875 -8.796875 L 11.96875 -6.140625 L 5.125 -6.140625 L 5.125 -2.734375 Z M 13.140625 -2.734375 "></path></g></g></g><g fill="#0068a6" fill-opacity="1"><g transform="translate(245.318302, 263.652627)"><g><path d="M 15.25 -14.71875 L 15.25 0 L 12.453125 0 L 5.109375 -8.9375 L 5.109375 0 L 1.75 0 L 1.75 -14.71875 L 4.5625 -14.71875 L 11.875 -5.78125 L 11.875 -14.71875 Z M 15.25 -14.71875 "></path></g></g></g><g fill="#0068a6" fill-opacity="1"><g transform="translate(141.424045, 292.886765)"><g><path d="M 8.125 -14.71875 C 9.425781 -14.71875 10.554688 -14.5 11.515625 -14.0625 C 12.472656 -13.632812 13.210938 -13.019531 13.734375 -12.21875 C 14.253906 -11.414062 14.515625 -10.46875 14.515625 -9.375 C 14.515625 -8.300781 14.253906 -7.359375 13.734375 -6.546875 C 13.210938 -5.742188 12.472656 -5.128906 11.515625 -4.703125 C 10.554688 -4.273438 9.425781 -4.0625 8.125 -4.0625 L 5.15625 -4.0625 L 5.15625 0 L 1.75 0 L 1.75 -14.71875 Z M 7.921875 -6.828125 C 8.953125 -6.828125 9.734375 -7.046875 10.265625 -7.484375 C 10.796875 -7.929688 11.0625 -8.5625 11.0625 -9.375 C 11.0625 -10.207031 10.796875 -10.84375 10.265625 -11.28125 C 9.734375 -11.726562 8.953125 -11.953125 7.921875 -11.953125 L 5.15625 -11.953125 L 5.15625 -6.828125 Z M 7.921875 -6.828125 "></path></g></g></g><g fill="#0068a6" fill-opacity="1"><g transform="translate(156.818482, 292.886765)"><g><path d="M 8.875 0.25 C 7.34375 0.25 5.960938 -0.078125 4.734375 -0.734375 C 3.515625 -1.390625 2.554688 -2.296875 1.859375 -3.453125 C 1.160156 -4.609375 0.8125 -5.910156 0.8125 -7.359375 C 0.8125 -8.804688 1.160156 -10.109375 1.859375 -11.265625 C 2.554688 -12.421875 3.515625 -13.328125 4.734375 -13.984375 C 5.960938 -14.640625 7.34375 -14.96875 8.875 -14.96875 C 10.40625 -14.96875 11.78125 -14.640625 13 -13.984375 C 14.21875 -13.328125 15.175781 -12.421875 15.875 -11.265625 C 16.582031 -10.109375 16.9375 -8.804688 16.9375 -7.359375 C 16.9375 -5.910156 16.582031 -4.609375 15.875 -3.453125 C 15.175781 -2.296875 14.21875 -1.390625 13 -0.734375 C 11.78125 -0.078125 10.40625 0.25 8.875 0.25 Z M 8.875 -2.65625 C 9.738281 -2.65625 10.519531 -2.851562 11.21875 -3.25 C 11.925781 -3.644531 12.476562 -4.203125 12.875 -4.921875 C 13.28125 -5.640625 13.484375 -6.453125 13.484375 -7.359375 C 13.484375 -8.273438 13.28125 -9.085938 12.875 -9.796875 C 12.476562 -10.515625 11.925781 -11.070312 11.21875 -11.46875 C 10.519531 -11.875 9.738281 -12.078125 8.875 -12.078125 C 8.007812 -12.078125 7.222656 -11.875 6.515625 -11.46875 C 5.816406 -11.070312 5.265625 -10.515625 4.859375 -9.796875 C 4.460938 -9.085938 4.265625 -8.273438 4.265625 -7.359375 C 4.265625 -6.453125 4.460938 -5.640625 4.859375 -4.921875 C 5.265625 -4.203125 5.816406 -3.644531 6.515625 -3.25 C 7.222656 -2.851562 8.007812 -2.65625 8.875 -2.65625 Z M 8.875 -2.65625 "></path></g></g></g><g fill="#0068a6" fill-opacity="1"><g transform="translate(174.568354, 292.886765)"><g><path d="M 8.796875 0.25 C 7.296875 0.25 5.9375 -0.0703125 4.71875 -0.71875 C 3.507812 -1.375 2.554688 -2.28125 1.859375 -3.4375 C 1.160156 -4.59375 0.8125 -5.898438 0.8125 -7.359375 C 0.8125 -8.816406 1.160156 -10.125 1.859375 -11.28125 C 2.554688 -12.4375 3.507812 -13.335938 4.71875 -13.984375 C 5.9375 -14.640625 7.300781 -14.96875 8.8125 -14.96875 C 10.082031 -14.96875 11.234375 -14.742188 12.265625 -14.296875 C 13.296875 -13.847656 14.164062 -13.203125 14.875 -12.359375 L 12.6875 -10.34375 C 11.6875 -11.5 10.453125 -12.078125 8.984375 -12.078125 C 8.066406 -12.078125 7.25 -11.875 6.53125 -11.46875 C 5.820312 -11.070312 5.265625 -10.515625 4.859375 -9.796875 C 4.460938 -9.085938 4.265625 -8.273438 4.265625 -7.359375 C 4.265625 -6.453125 4.460938 -5.640625 4.859375 -4.921875 C 5.265625 -4.203125 5.820312 -3.644531 6.53125 -3.25 C 7.25 -2.851562 8.066406 -2.65625 8.984375 -2.65625 C 10.453125 -2.65625 11.6875 -3.234375 12.6875 -4.390625 L 14.875 -2.375 C 14.164062 -1.519531 13.289062 -0.867188 12.25 -0.421875 C 11.21875 0.0234375 10.066406 0.25 8.796875 0.25 Z M 8.796875 0.25 "></path></g></g></g><g fill="#0068a6" fill-opacity="1"><g transform="translate(189.98382, 292.886765)"><g><path d="M 15.25 -14.71875 L 15.25 0 L 11.84375 0 L 11.84375 -6.03125 L 5.15625 -6.03125 L 5.15625 0 L 1.75 0 L 1.75 -14.71875 L 5.15625 -14.71875 L 5.15625 -8.921875 L 11.84375 -8.921875 L 11.84375 -14.71875 Z M 15.25 -14.71875 "></path></g></g></g><g fill="#0068a6" fill-opacity="1"><g transform="translate(206.976589, 292.886765)"><g><path d="M 13.140625 -2.734375 L 13.140625 0 L 1.75 0 L 1.75 -14.71875 L 12.875 -14.71875 L 12.875 -11.984375 L 5.125 -11.984375 L 5.125 -8.796875 L 11.96875 -8.796875 L 11.96875 -6.140625 L 5.125 -6.140625 L 5.125 -2.734375 Z M 13.140625 -2.734375 "></path></g></g></g><g fill="#0068a6" fill-opacity="1"><g transform="translate(221.090805, 292.886765)"><g></g></g></g><g fill="#00bf63" fill-opacity="1"><g transform="translate(95.690387, 314.127747)"><g><path d="M 4.65625 0.109375 C 3.875 0.109375 3.164062 -0.0625 2.53125 -0.40625 C 1.894531 -0.75 1.394531 -1.222656 1.03125 -1.828125 C 0.664062 -2.441406 0.484375 -3.132812 0.484375 -3.90625 C 0.484375 -4.664062 0.664062 -5.351562 1.03125 -5.96875 C 1.394531 -6.582031 1.894531 -7.0625 2.53125 -7.40625 C 3.164062 -7.75 3.878906 -7.921875 4.671875 -7.921875 C 5.316406 -7.921875 5.898438 -7.804688 6.421875 -7.578125 C 6.953125 -7.359375 7.398438 -7.035156 7.765625 -6.609375 L 6.828125 -5.734375 C 6.265625 -6.347656 5.566406 -6.65625 4.734375 -6.65625 C 4.203125 -6.65625 3.722656 -6.535156 3.296875 -6.296875 C 2.878906 -6.066406 2.550781 -5.742188 2.3125 -5.328125 C 2.070312 -4.910156 1.953125 -4.4375 1.953125 -3.90625 C 1.953125 -3.375 2.070312 -2.898438 2.3125 -2.484375 C 2.550781 -2.066406 2.878906 -1.738281 3.296875 -1.5 C 3.722656 -1.269531 4.203125 -1.15625 4.734375 -1.15625 C 5.566406 -1.15625 6.265625 -1.46875 6.828125 -2.09375 L 7.765625 -1.1875 C 7.398438 -0.769531 6.953125 -0.445312 6.421875 -0.21875 C 5.890625 0 5.300781 0.109375 4.65625 0.109375 Z M 4.65625 0.109375 "></path></g></g></g><g fill="#00bf63" fill-opacity="1"><g transform="translate(104.80753, 314.127747)"><g><path d="M 4.703125 0.109375 C 3.898438 0.109375 3.175781 -0.0625 2.53125 -0.40625 C 1.894531 -0.75 1.394531 -1.226562 1.03125 -1.84375 C 0.664062 -2.457031 0.484375 -3.144531 0.484375 -3.90625 C 0.484375 -4.664062 0.664062 -5.351562 1.03125 -5.96875 C 1.394531 -6.582031 1.894531 -7.0625 2.53125 -7.40625 C 3.175781 -7.75 3.898438 -7.921875 4.703125 -7.921875 C 5.492188 -7.921875 6.207031 -7.75 6.84375 -7.40625 C 7.488281 -7.0625 7.992188 -6.582031 8.359375 -5.96875 C 8.722656 -5.351562 8.90625 -4.664062 8.90625 -3.90625 C 8.90625 -3.132812 8.722656 -2.441406 8.359375 -1.828125 C 7.992188 -1.222656 7.488281 -0.75 6.84375 -0.40625 C 6.207031 -0.0625 5.492188 0.109375 4.703125 0.109375 Z M 4.703125 -1.15625 C 5.222656 -1.15625 5.691406 -1.269531 6.109375 -1.5 C 6.523438 -1.738281 6.847656 -2.066406 7.078125 -2.484375 C 7.316406 -2.910156 7.4375 -3.382812 7.4375 -3.90625 C 7.4375 -4.425781 7.316406 -4.894531 7.078125 -5.3125 C 6.847656 -5.738281 6.523438 -6.066406 6.109375 -6.296875 C 5.691406 -6.535156 5.222656 -6.65625 4.703125 -6.65625 C 4.179688 -6.65625 3.710938 -6.535156 3.296875 -6.296875 C 2.878906 -6.066406 2.550781 -5.738281 2.3125 -5.3125 C 2.070312 -4.894531 1.953125 -4.425781 1.953125 -3.90625 C 1.953125 -3.382812 2.070312 -2.910156 2.3125 -2.484375 C 2.550781 -2.066406 2.878906 -1.738281 3.296875 -1.5 C 3.710938 -1.269531 4.179688 -1.15625 4.703125 -1.15625 Z M 4.703125 -1.15625 "></path></g></g></g><g fill="#00bf63" fill-opacity="1"><g transform="translate(115.207912, 314.127747)"><g><path d="M 7.984375 -7.8125 L 7.984375 0 L 6.796875 0 L 2.484375 -5.28125 L 2.484375 0 L 1.046875 0 L 1.046875 -7.8125 L 2.25 -7.8125 L 6.546875 -2.515625 L 6.546875 -7.8125 Z M 7.984375 -7.8125 "></path></g></g></g><g fill="#00bf63" fill-opacity="1"><g transform="translate(125.251223, 314.127747)"><g><path d="M 4.65625 0.109375 C 3.875 0.109375 3.164062 -0.0625 2.53125 -0.40625 C 1.894531 -0.75 1.394531 -1.222656 1.03125 -1.828125 C 0.664062 -2.441406 0.484375 -3.132812 0.484375 -3.90625 C 0.484375 -4.664062 0.664062 -5.351562 1.03125 -5.96875 C 1.394531 -6.582031 1.894531 -7.0625 2.53125 -7.40625 C 3.164062 -7.75 3.878906 -7.921875 4.671875 -7.921875 C 5.316406 -7.921875 5.898438 -7.804688 6.421875 -7.578125 C 6.953125 -7.359375 7.398438 -7.035156 7.765625 -6.609375 L 6.828125 -5.734375 C 6.265625 -6.347656 5.566406 -6.65625 4.734375 -6.65625 C 4.203125 -6.65625 3.722656 -6.535156 3.296875 -6.296875 C 2.878906 -6.066406 2.550781 -5.742188 2.3125 -5.328125 C 2.070312 -4.910156 1.953125 -4.4375 1.953125 -3.90625 C 1.953125 -3.375 2.070312 -2.898438 2.3125 -2.484375 C 2.550781 -2.066406 2.878906 -1.738281 3.296875 -1.5 C 3.722656 -1.269531 4.203125 -1.15625 4.734375 -1.15625 C 5.566406 -1.15625 6.265625 -1.46875 6.828125 -2.09375 L 7.765625 -1.1875 C 7.398438 -0.769531 6.953125 -0.445312 6.421875 -0.21875 C 5.890625 0 5.300781 0.109375 4.65625 0.109375 Z M 4.65625 0.109375 "></path></g></g></g><g fill="#00bf63" fill-opacity="1"><g transform="translate(134.368365, 314.127747)"><g><path d="M 4.703125 0.109375 C 3.898438 0.109375 3.175781 -0.0625 2.53125 -0.40625 C 1.894531 -0.75 1.394531 -1.226562 1.03125 -1.84375 C 0.664062 -2.457031 0.484375 -3.144531 0.484375 -3.90625 C 0.484375 -4.664062 0.664062 -5.351562 1.03125 -5.96875 C 1.394531 -6.582031 1.894531 -7.0625 2.53125 -7.40625 C 3.175781 -7.75 3.898438 -7.921875 4.703125 -7.921875 C 5.492188 -7.921875 6.207031 -7.75 6.84375 -7.40625 C 7.488281 -7.0625 7.992188 -6.582031 8.359375 -5.96875 C 8.722656 -5.351562 8.90625 -4.664062 8.90625 -3.90625 C 8.90625 -3.132812 8.722656 -2.441406 8.359375 -1.828125 C 7.992188 -1.222656 7.488281 -0.75 6.84375 -0.40625 C 6.207031 -0.0625 5.492188 0.109375 4.703125 0.109375 Z M 4.703125 -1.15625 C 5.222656 -1.15625 5.691406 -1.269531 6.109375 -1.5 C 6.523438 -1.738281 6.847656 -2.066406 7.078125 -2.484375 C 7.316406 -2.910156 7.4375 -3.382812 7.4375 -3.90625 C 7.4375 -4.425781 7.316406 -4.894531 7.078125 -5.3125 C 6.847656 -5.738281 6.523438 -6.066406 6.109375 -6.296875 C 5.691406 -6.535156 5.222656 -6.65625 4.703125 -6.65625 C 4.179688 -6.65625 3.710938 -6.535156 3.296875 -6.296875 C 2.878906 -6.066406 2.550781 -5.738281 2.3125 -5.3125 C 2.070312 -4.894531 1.953125 -4.425781 1.953125 -3.90625 C 1.953125 -3.382812 2.070312 -2.910156 2.3125 -2.484375 C 2.550781 -2.066406 2.878906 -1.738281 3.296875 -1.5 C 3.710938 -1.269531 4.179688 -1.15625 4.703125 -1.15625 Z M 4.703125 -1.15625 "></path></g></g></g><g fill="#00bf63" fill-opacity="1"><g transform="translate(144.768745, 314.127747)"><g><path d="M 4.40625 0.109375 C 3.332031 0.109375 2.492188 -0.191406 1.890625 -0.796875 C 1.285156 -1.398438 0.984375 -2.269531 0.984375 -3.40625 L 0.984375 -7.8125 L 2.4375 -7.8125 L 2.4375 -3.453125 C 2.4375 -1.921875 3.097656 -1.15625 4.421875 -1.15625 C 5.734375 -1.15625 6.390625 -1.921875 6.390625 -3.453125 L 6.390625 -7.8125 L 7.828125 -7.8125 L 7.828125 -3.40625 C 7.828125 -2.269531 7.523438 -1.398438 6.921875 -0.796875 C 6.328125 -0.191406 5.488281 0.109375 4.40625 0.109375 Z M 4.40625 0.109375 "></path></g></g></g><g fill="#00bf63" fill-opacity="1"><g transform="translate(154.577717, 314.127747)"><g><path d="M 6.15625 0 L 4.5625 -2.28125 C 4.5 -2.28125 4.398438 -2.28125 4.265625 -2.28125 L 2.5 -2.28125 L 2.5 0 L 1.046875 0 L 1.046875 -7.8125 L 4.265625 -7.8125 C 4.941406 -7.8125 5.53125 -7.695312 6.03125 -7.46875 C 6.53125 -7.25 6.914062 -6.929688 7.1875 -6.515625 C 7.457031 -6.097656 7.59375 -5.601562 7.59375 -5.03125 C 7.59375 -4.445312 7.445312 -3.941406 7.15625 -3.515625 C 6.875 -3.085938 6.460938 -2.769531 5.921875 -2.5625 L 7.71875 0 Z M 6.125 -5.03125 C 6.125 -5.53125 5.957031 -5.910156 5.625 -6.171875 C 5.300781 -6.441406 4.820312 -6.578125 4.1875 -6.578125 L 2.5 -6.578125 L 2.5 -3.46875 L 4.1875 -3.46875 C 4.820312 -3.46875 5.300781 -3.601562 5.625 -3.875 C 5.957031 -4.144531 6.125 -4.53125 6.125 -5.03125 Z M 6.125 -5.03125 "></path></g></g></g><g fill="#00bf63" fill-opacity="1"><g transform="translate(163.739495, 314.127747)"><g><path d="M 3.46875 0.109375 C 2.863281 0.109375 2.28125 0.0234375 1.71875 -0.140625 C 1.15625 -0.316406 0.710938 -0.546875 0.390625 -0.828125 L 0.890625 -1.953125 C 1.210938 -1.703125 1.601562 -1.492188 2.0625 -1.328125 C 2.53125 -1.171875 3 -1.09375 3.46875 -1.09375 C 4.050781 -1.09375 4.484375 -1.1875 4.765625 -1.375 C 5.054688 -1.5625 5.203125 -1.804688 5.203125 -2.109375 C 5.203125 -2.328125 5.117188 -2.507812 4.953125 -2.65625 C 4.796875 -2.800781 4.59375 -2.914062 4.34375 -3 C 4.101562 -3.082031 3.769531 -3.175781 3.34375 -3.28125 C 2.75 -3.414062 2.265625 -3.554688 1.890625 -3.703125 C 1.523438 -3.847656 1.210938 -4.066406 0.953125 -4.359375 C 0.691406 -4.660156 0.5625 -5.070312 0.5625 -5.59375 C 0.5625 -6.019531 0.675781 -6.410156 0.90625 -6.765625 C 1.144531 -7.117188 1.5 -7.398438 1.96875 -7.609375 C 2.4375 -7.816406 3.015625 -7.921875 3.703125 -7.921875 C 4.179688 -7.921875 4.648438 -7.859375 5.109375 -7.734375 C 5.566406 -7.617188 5.960938 -7.453125 6.296875 -7.234375 L 5.84375 -6.109375 C 5.5 -6.304688 5.140625 -6.457031 4.765625 -6.5625 C 4.398438 -6.664062 4.039062 -6.71875 3.6875 -6.71875 C 3.113281 -6.71875 2.6875 -6.617188 2.40625 -6.421875 C 2.132812 -6.234375 2 -5.976562 2 -5.65625 C 2 -5.4375 2.078125 -5.253906 2.234375 -5.109375 C 2.398438 -4.960938 2.601562 -4.847656 2.84375 -4.765625 C 3.09375 -4.691406 3.425781 -4.601562 3.84375 -4.5 C 4.425781 -4.363281 4.898438 -4.222656 5.265625 -4.078125 C 5.640625 -3.929688 5.957031 -3.707031 6.21875 -3.40625 C 6.488281 -3.113281 6.625 -2.710938 6.625 -2.203125 C 6.625 -1.773438 6.503906 -1.382812 6.265625 -1.03125 C 6.035156 -0.6875 5.679688 -0.410156 5.203125 -0.203125 C 4.734375 0.00390625 4.15625 0.109375 3.46875 0.109375 Z M 3.46875 0.109375 "></path></g></g></g><g fill="#00bf63" fill-opacity="1"><g transform="translate(171.763092, 314.127747)"><g></g></g></g><g fill="#00bf63" fill-opacity="1"><g transform="translate(175.847701, 314.127747)"><g><path d="M 1.046875 -7.8125 L 4.46875 -7.8125 C 5.300781 -7.8125 6.039062 -7.648438 6.6875 -7.328125 C 7.332031 -7.003906 7.832031 -6.546875 8.1875 -5.953125 C 8.539062 -5.359375 8.71875 -4.675781 8.71875 -3.90625 C 8.71875 -3.132812 8.539062 -2.453125 8.1875 -1.859375 C 7.832031 -1.265625 7.332031 -0.804688 6.6875 -0.484375 C 6.039062 -0.160156 5.300781 0 4.46875 0 L 1.046875 0 Z M 4.390625 -1.234375 C 4.960938 -1.234375 5.46875 -1.34375 5.90625 -1.5625 C 6.34375 -1.78125 6.675781 -2.085938 6.90625 -2.484375 C 7.144531 -2.890625 7.265625 -3.363281 7.265625 -3.90625 C 7.265625 -4.4375 7.144531 -4.90625 6.90625 -5.3125 C 6.675781 -5.71875 6.34375 -6.03125 5.90625 -6.25 C 5.46875 -6.46875 4.960938 -6.578125 4.390625 -6.578125 L 2.5 -6.578125 L 2.5 -1.234375 Z M 4.390625 -1.234375 "></path></g></g></g><g fill="#00bf63" fill-opacity="1"><g transform="translate(186.06955, 314.127747)"><g><path d="M 6.90625 -1.21875 L 6.90625 0 L 1.046875 0 L 1.046875 -7.8125 L 6.75 -7.8125 L 6.75 -6.59375 L 2.5 -6.59375 L 2.5 -4.5625 L 6.265625 -4.5625 L 6.265625 -3.375 L 2.5 -3.375 L 2.5 -1.21875 Z M 6.90625 -1.21875 "></path></g></g></g><g fill="#00bf63" fill-opacity="1"><g transform="translate(194.55065, 314.127747)"><g></g></g></g><g fill="#00bf63" fill-opacity="1"><g transform="translate(198.635254, 314.127747)"><g><path d="M 8.21875 0 L 8.21875 -5.171875 L 5.640625 -0.890625 L 5 -0.890625 L 2.4375 -5.109375 L 2.4375 0 L 1.046875 0 L 1.046875 -7.8125 L 2.25 -7.8125 L 5.34375 -2.640625 L 8.390625 -7.8125 L 9.578125 -7.8125 L 9.59375 0 Z M 8.21875 0 "></path></g></g></g><g fill="#00bf63" fill-opacity="1"><g transform="translate(210.296559, 314.127747)"><g><path d="M 6.90625 -1.21875 L 6.90625 0 L 1.046875 0 L 1.046875 -7.8125 L 6.75 -7.8125 L 6.75 -6.59375 L 2.5 -6.59375 L 2.5 -4.5625 L 6.265625 -4.5625 L 6.265625 -3.375 L 2.5 -3.375 L 2.5 -1.21875 Z M 6.90625 -1.21875 "></path></g></g></g><g fill="#00bf63" fill-opacity="1"><g transform="translate(218.777658, 314.127747)"><g><path d="M 1.046875 -7.8125 L 4.46875 -7.8125 C 5.300781 -7.8125 6.039062 -7.648438 6.6875 -7.328125 C 7.332031 -7.003906 7.832031 -6.546875 8.1875 -5.953125 C 8.539062 -5.359375 8.71875 -4.675781 8.71875 -3.90625 C 8.71875 -3.132812 8.539062 -2.453125 8.1875 -1.859375 C 7.832031 -1.265625 7.332031 -0.804688 6.6875 -0.484375 C 6.039062 -0.160156 5.300781 0 4.46875 0 L 1.046875 0 Z M 4.390625 -1.234375 C 4.960938 -1.234375 5.46875 -1.34375 5.90625 -1.5625 C 6.34375 -1.78125 6.675781 -2.085938 6.90625 -2.484375 C 7.144531 -2.890625 7.265625 -3.363281 7.265625 -3.90625 C 7.265625 -4.4375 7.144531 -4.90625 6.90625 -5.3125 C 6.675781 -5.71875 6.34375 -6.03125 5.90625 -6.25 C 5.46875 -6.46875 4.960938 -6.578125 4.390625 -6.578125 L 2.5 -6.578125 L 2.5 -1.234375 Z M 4.390625 -1.234375 "></path></g></g></g><g fill="#00bf63" fill-opacity="1"><g transform="translate(228.999507, 314.127747)"><g><path d="M 6.90625 -1.21875 L 6.90625 0 L 1.046875 0 L 1.046875 -7.8125 L 6.75 -7.8125 L 6.75 -6.59375 L 2.5 -6.59375 L 2.5 -4.5625 L 6.265625 -4.5625 L 6.265625 -3.375 L 2.5 -3.375 L 2.5 -1.21875 Z M 6.90625 -1.21875 "></path></g></g></g><g fill="#00bf63" fill-opacity="1"><g transform="translate(237.480607, 314.127747)"><g><path d="M 4.65625 0.109375 C 3.875 0.109375 3.164062 -0.0625 2.53125 -0.40625 C 1.894531 -0.75 1.394531 -1.222656 1.03125 -1.828125 C 0.664062 -2.441406 0.484375 -3.132812 0.484375 -3.90625 C 0.484375 -4.664062 0.664062 -5.351562 1.03125 -5.96875 C 1.394531 -6.582031 1.894531 -7.0625 2.53125 -7.40625 C 3.164062 -7.75 3.878906 -7.921875 4.671875 -7.921875 C 5.316406 -7.921875 5.898438 -7.804688 6.421875 -7.578125 C 6.953125 -7.359375 7.398438 -7.035156 7.765625 -6.609375 L 6.828125 -5.734375 C 6.265625 -6.347656 5.566406 -6.65625 4.734375 -6.65625 C 4.203125 -6.65625 3.722656 -6.535156 3.296875 -6.296875 C 2.878906 -6.066406 2.550781 -5.742188 2.3125 -5.328125 C 2.070312 -4.910156 1.953125 -4.4375 1.953125 -3.90625 C 1.953125 -3.375 2.070312 -2.898438 2.3125 -2.484375 C 2.550781 -2.066406 2.878906 -1.738281 3.296875 -1.5 C 3.722656 -1.269531 4.203125 -1.15625 4.734375 -1.15625 C 5.566406 -1.15625 6.265625 -1.46875 6.828125 -2.09375 L 7.765625 -1.1875 C 7.398438 -0.769531 6.953125 -0.445312 6.421875 -0.21875 C 5.890625 0 5.300781 0.109375 4.65625 0.109375 Z M 4.65625 0.109375 "></path></g></g></g><g fill="#00bf63" fill-opacity="1"><g transform="translate(246.597749, 314.127747)"><g><path d="M 1.046875 -7.8125 L 2.5 -7.8125 L 2.5 0 L 1.046875 0 Z M 1.046875 -7.8125 "></path></g></g></g><g fill="#00bf63" fill-opacity="1"><g transform="translate(251.162179, 314.127747)"><g><path d="M 7.984375 -7.8125 L 7.984375 0 L 6.796875 0 L 2.484375 -5.28125 L 2.484375 0 L 1.046875 0 L 1.046875 -7.8125 L 2.25 -7.8125 L 6.546875 -2.515625 L 6.546875 -7.8125 Z M 7.984375 -7.8125 "></path></g></g></g><g fill="#00bf63" fill-opacity="1"><g transform="translate(261.205497, 314.127747)"><g><path d="M 6.90625 -1.21875 L 6.90625 0 L 1.046875 0 L 1.046875 -7.8125 L 6.75 -7.8125 L 6.75 -6.59375 L 2.5 -6.59375 L 2.5 -4.5625 L 6.265625 -4.5625 L 6.265625 -3.375 L 2.5 -3.375 L 2.5 -1.21875 Z M 6.90625 -1.21875 "></path></g></g></g><g fill="#00bf63" fill-opacity="1"><g transform="translate(269.68758, 314.127747)"><g></g></g></g></svg>